<svg width="24" height="20" viewBox="0 0 24 20" fill="none" xmlns="http://www.w3.org/2000/svg">
<path d="M6.72852 0.679688V3.59961H5.22461V0.679688H6.72852ZM6.54297 16.627V19.2441H5.04883V16.627H6.54297ZM8.01758 13.4727C8.01758 13.0951 7.93945 12.7663 7.7832 12.4863C7.63346 12.1999 7.38607 11.9427 7.04102 11.7148C6.69596 11.4805 6.23372 11.2624 5.6543 11.0605C4.82096 10.7676 4.0918 10.4388 3.4668 10.0742C2.84831 9.70312 2.36654 9.2474 2.02148 8.70703C1.68294 8.16016 1.51367 7.47982 1.51367 6.66602C1.51367 5.86523 1.69596 5.17188 2.06055 4.58594C2.43164 4 2.94596 3.54753 3.60352 3.22852C4.26107 2.90951 5.0293 2.75 5.9082 2.75C6.58529 2.75 7.19401 2.85091 7.73438 3.05273C8.28125 3.25456 8.74674 3.55078 9.13086 3.94141C9.51497 4.33203 9.80794 4.8138 10.0098 5.38672C10.2181 5.95312 10.3223 6.60417 10.3223 7.33984H7.97852C7.97852 6.92318 7.92969 6.55208 7.83203 6.22656C7.74089 5.89453 7.60417 5.61458 7.42188 5.38672C7.23958 5.15234 7.01823 4.97331 6.75781 4.84961C6.50391 4.72591 6.21419 4.66406 5.88867 4.66406C5.42643 4.66406 5.04557 4.75195 4.74609 4.92773C4.44661 5.09701 4.22526 5.33138 4.08203 5.63086C3.94531 5.93034 3.87695 6.27214 3.87695 6.65625C3.87695 7.02734 3.94857 7.35286 4.0918 7.63281C4.23503 7.91276 4.47917 8.16667 4.82422 8.39453C5.17578 8.61589 5.65755 8.84049 6.26953 9.06836C7.10938 9.36784 7.83529 9.70312 8.44727 10.0742C9.06576 10.4388 9.54102 10.8913 9.87305 11.4316C10.2116 11.9655 10.3809 12.6393 10.3809 13.4531C10.3809 14.293 10.1855 15.0059 9.79492 15.5918C9.41081 16.1777 8.87044 16.6237 8.17383 16.9297C7.48372 17.2292 6.67969 17.3789 5.76172 17.3789C5.18229 17.3789 4.60612 17.304 4.0332 17.1543C3.4668 16.998 2.95247 16.7441 2.49023 16.3926C2.02799 16.041 1.66016 15.5755 1.38672 14.9961C1.11328 14.4102 0.976562 13.694 0.976562 12.8477H3.33984C3.33984 13.3555 3.4082 13.7786 3.54492 14.1172C3.68164 14.4557 3.86719 14.7227 4.10156 14.918C4.33594 15.1133 4.59635 15.2533 4.88281 15.3379C5.17578 15.4225 5.46875 15.4648 5.76172 15.4648C6.25 15.4648 6.66016 15.3835 6.99219 15.2207C7.33073 15.0514 7.58464 14.8171 7.75391 14.5176C7.92969 14.2116 8.01758 13.8633 8.01758 13.4727ZM21.5508 2.86719H21.8438V4.79102H21.6777C20.8379 4.79102 20.112 4.92122 19.5 5.18164C18.8945 5.44206 18.3965 5.80013 18.0059 6.25586C17.6152 6.71159 17.3223 7.24544 17.127 7.85742C16.9382 8.46289 16.8438 9.10742 16.8438 9.79102V12.0273C16.8438 12.5938 16.9056 13.0951 17.0293 13.5312C17.153 13.9609 17.3255 14.3223 17.5469 14.6152C17.7747 14.9017 18.0352 15.1198 18.3281 15.2695C18.6211 15.4193 18.9368 15.4941 19.2754 15.4941C19.627 15.4941 19.946 15.4225 20.2324 15.2793C20.5189 15.1296 20.763 14.9245 20.9648 14.6641C21.1667 14.4036 21.3197 14.0944 21.4238 13.7363C21.528 13.3783 21.5801 12.9876 21.5801 12.5645C21.5801 12.1608 21.528 11.7832 21.4238 11.4316C21.3262 11.0736 21.1797 10.7611 20.9844 10.4941C20.7891 10.2207 20.5449 10.0091 20.252 9.85938C19.9655 9.70312 19.6335 9.625 19.2559 9.625C18.7871 9.625 18.3607 9.73568 17.9766 9.95703C17.599 10.1784 17.293 10.4681 17.0586 10.8262C16.8307 11.1777 16.707 11.5521 16.6875 11.9492L15.7891 11.6562C15.8411 11.0508 15.9746 10.5072 16.1895 10.0254C16.4108 9.54362 16.7005 9.13346 17.0586 8.79492C17.4167 8.45638 17.8301 8.19922 18.2988 8.02344C18.7741 7.84115 19.2949 7.75 19.8613 7.75C20.5514 7.75 21.1504 7.88021 21.6582 8.14062C22.166 8.40104 22.5859 8.75586 22.918 9.20508C23.2565 9.64779 23.5072 10.1556 23.6699 10.7285C23.8392 11.2949 23.9238 11.8874 23.9238 12.5059C23.9238 13.1895 23.8197 13.8275 23.6113 14.4199C23.403 15.0059 23.097 15.5202 22.6934 15.9629C22.2962 16.4056 21.8112 16.7507 21.2383 16.998C20.6719 17.2454 20.0273 17.3691 19.3047 17.3691C18.543 17.3691 17.8626 17.2227 17.2637 16.9297C16.6712 16.6367 16.1667 16.2331 15.75 15.7188C15.3398 15.2044 15.0273 14.612 14.8125 13.9414C14.5977 13.2708 14.4902 12.5612 14.4902 11.8125V10.8359C14.4902 9.75521 14.627 8.73633 14.9004 7.7793C15.1738 6.81576 15.5938 5.96615 16.1602 5.23047C16.7331 4.49479 17.4655 3.91862 18.3574 3.50195C19.2493 3.07878 20.3138 2.86719 21.5508 2.86719Z" fill="#F6762C"/>
</svg>
