<svg width="19" height="16" viewBox="0 0 19 16" fill="none" xmlns="http://www.w3.org/2000/svg">
<g opacity="0.5">
<path d="M6.39844 11.0312C6.39844 10.5885 6.25781 10.224 5.97656 9.9375C5.69531 9.64583 5.22656 9.38542 4.57031 9.15625C3.91406 8.92188 3.40365 8.70573 3.03906 8.50781C1.82552 7.85677 1.21875 6.89323 1.21875 5.61719C1.21875 4.7526 1.48177 4.04167 2.00781 3.48438C2.53385 2.92708 3.2474 2.59635 4.14844 2.49219V0.789062H5.39844V2.50781C6.30469 2.63802 7.00521 3.02344 7.5 3.66406C7.99479 4.29948 8.24219 5.1276 8.24219 6.14844H6.35156C6.35156 5.49219 6.20312 4.97656 5.90625 4.60156C5.61458 4.22135 5.21615 4.03125 4.71094 4.03125C4.21094 4.03125 3.82031 4.16667 3.53906 4.4375C3.25781 4.70833 3.11719 5.09635 3.11719 5.60156C3.11719 6.05469 3.25521 6.41927 3.53125 6.69531C3.8125 6.96615 4.28646 7.22396 4.95312 7.46875C5.61979 7.71354 6.14323 7.9401 6.52344 8.14844C6.90365 8.35677 7.22396 8.59635 7.48438 8.86719C7.74479 9.13281 7.94531 9.4401 8.08594 9.78906C8.22656 10.138 8.29688 10.5469 8.29688 11.0156C8.29688 11.8958 8.02604 12.6094 7.48438 13.1562C6.94792 13.7031 6.19792 14.026 5.23438 14.125V15.6484H3.99219V14.1328C2.96094 14.0182 2.16667 13.6484 1.60938 13.0234C1.05729 12.3984 0.78125 11.5703 0.78125 10.5391H2.67969C2.67969 11.1953 2.84375 11.7031 3.17188 12.0625C3.50521 12.4219 3.97396 12.6016 4.57812 12.6016C5.17188 12.6016 5.6224 12.4583 5.92969 12.1719C6.24219 11.8854 6.39844 11.5052 6.39844 11.0312ZM18.7094 5.625C18.7094 6.18229 18.5661 6.67969 18.2797 7.11719C17.9932 7.54948 17.6026 7.89062 17.1078 8.14062C17.7016 8.41667 18.1573 8.79427 18.475 9.27344C18.7979 9.7526 18.9594 10.2943 18.9594 10.8984C18.9594 11.8984 18.6208 12.6927 17.9438 13.2812C17.2667 13.8646 16.3656 14.1562 15.2406 14.1562C14.1104 14.1562 13.2042 13.862 12.5219 13.2734C11.8448 12.6849 11.5063 11.8932 11.5063 10.8984C11.5063 10.2891 11.6677 9.74219 11.9906 9.25781C12.3135 8.77344 12.7667 8.40104 13.35 8.14062C12.8604 7.89062 12.4724 7.54948 12.1859 7.11719C11.9047 6.67969 11.7641 6.18229 11.7641 5.625C11.7641 4.65625 12.0766 3.88802 12.7016 3.32031C13.3266 2.7526 14.1703 2.46875 15.2328 2.46875C16.3005 2.46875 17.1469 2.7526 17.7719 3.32031C18.3969 3.88802 18.7094 4.65625 18.7094 5.625ZM17.0609 10.8047C17.0609 10.2422 16.8917 9.78906 16.5531 9.44531C16.2198 9.09635 15.7771 8.92188 15.225 8.92188C14.6729 8.92188 14.2302 9.09375 13.8969 9.4375C13.5688 9.78125 13.4047 10.237 13.4047 10.8047C13.4047 11.362 13.5661 11.8073 13.8891 12.1406C14.2172 12.474 14.6677 12.6406 15.2406 12.6406C15.8135 12.6406 16.2589 12.4792 16.5766 12.1562C16.8995 11.8333 17.0609 11.3828 17.0609 10.8047ZM16.8188 5.69531C16.8188 5.20052 16.6755 4.79427 16.3891 4.47656C16.1026 4.15365 15.7172 3.99219 15.2328 3.99219C14.7484 3.99219 14.3656 4.14583 14.0844 4.45312C13.8031 4.75521 13.6625 5.16927 13.6625 5.69531C13.6625 6.21615 13.8031 6.63021 14.0844 6.9375C14.3708 7.24479 14.7563 7.39844 15.2406 7.39844C15.725 7.39844 16.1078 7.24479 16.3891 6.9375C16.6755 6.63021 16.8188 6.21615 16.8188 5.69531Z" fill="#F6762C"/>
<path d="M0 10H19.7875V10.7969H0V10Z" fill="#F6762C"/>
</g>
</svg>
